<svg xmlns="http://www.w3.org/2000/svg" xmlns:xlink="http://www.w3.org/1999/xlink" width="500" zoomAndPan="magnify" viewBox="0 0 375 374.999991" height="500" preserveAspectRatio="xMidYMid meet" version="1.0"><defs><clipPath id="c463c977fe"><path d="M 5 7.691406 L 370 7.691406 L 370 366.941406 L 5 366.941406 Z M 5 7.691406 " clip-rule="nonzero"/></clipPath></defs><g clip-path="url(#c463c977fe)"><path fill="#ffffff" d="M 324.238281 202.125 L 107.164062 202.125 C 106.835938 198.234375 106.644531 194.300781 106.574219 190.339844 L 13.894531 190.339844 C 8.933594 190.339844 4.953125 186.242188 5.109375 181.289062 C 5.109375 181.214844 5.113281 181.140625 5.113281 181.0625 C 5.265625 176.316406 9.148438 172.546875 13.898438 172.546875 L 324.238281 172.546875 C 330.675781 172.546875 335.605469 166.785156 334.570312 160.433594 C 334.558594 160.363281 334.546875 160.289062 334.535156 160.222656 C 333.703125 155.15625 329.339844 151.429688 324.203125 151.429688 L 110.238281 151.429688 C 111.070312 147.449219 112.039062 143.515625 113.136719 139.640625 L 24.175781 139.640625 C 17.988281 139.640625 13.667969 133.453125 15.878906 127.675781 C 15.902344 127.613281 15.925781 127.546875 15.953125 127.488281 C 17.261719 124.082031 20.554688 121.851562 24.207031 121.851562 L 306.488281 121.851562 C 314.472656 121.851562 319.539062 113.265625 315.636719 106.304688 C 315.597656 106.234375 315.558594 106.164062 315.519531 106.097656 C 313.65625 102.789062 310.171875 100.730469 306.375 100.730469 L 129.464844 100.730469 C 131.769531 96.695312 134.230469 92.765625 136.832031 88.945312 L 55.730469 88.945312 C 48.03125 88.945312 43.976562 79.773438 49.199219 74.121094 C 49.25 74.0625 49.304688 74.007812 49.359375 73.949219 C 51.023438 72.152344 53.367188 71.152344 55.820312 71.152344 L 260.976562 71.152344 C 271.183594 71.152344 275.339844 58.070312 267.03125 52.144531 C 266.941406 52.078125 266.851562 52.019531 266.761719 51.953125 C 264.992188 50.695312 262.875 50.027344 260.703125 50.027344 L 173.101562 50.027344 C 178.191406 46.003906 183.515625 42.257812 189.046875 38.808594 C 117.953125 36.8125 60.742188 62.847656 60.742188 62.851562 C 93.40625 28.921875 139.289062 7.796875 190.117188 7.757812 C 289.453125 7.675781 369.808594 87.753906 369.980469 187.015625 C 370.152344 286.339844 289.628906 366.914062 190.265625 366.914062 C 139.378906 366.914062 93.4375 345.78125 60.742188 311.824219 C 60.742188 311.824219 117.953125 337.859375 189.046875 335.863281 C 183.515625 332.414062 178.191406 328.667969 173.101562 324.644531 L 260.703125 324.644531 C 262.875 324.644531 264.992188 323.976562 266.761719 322.71875 C 266.851562 322.652344 266.941406 322.59375 267.03125 322.527344 C 275.339844 316.601562 271.183594 303.519531 260.976562 303.519531 L 150.714844 303.519531 C 147.347656 299.738281 144.148438 295.800781 141.117188 291.734375 L 45.898438 291.734375 C 43.128906 291.734375 40.527344 290.425781 38.851562 288.21875 C 38.804688 288.160156 38.765625 288.105469 38.71875 288.046875 C 34.328125 282.257812 38.5 273.941406 45.765625 273.941406 L 306.375 273.941406 C 310.171875 273.941406 313.65625 271.882812 315.519531 268.574219 C 315.558594 268.507812 315.597656 268.4375 315.636719 268.367188 C 319.539062 261.40625 314.472656 252.820312 306.488281 252.820312 L 119.222656 252.820312 C 117.664062 248.960938 116.242188 245.03125 114.957031 241.035156 L 20.179688 241.035156 C 16.265625 241.035156 12.832031 238.457031 11.71875 234.703125 C 11.703125 234.648438 11.683594 234.589844 11.667969 234.53125 C 10.003906 228.894531 14.25 223.246094 20.128906 223.246094 L 324.203125 223.246094 C 329.339844 223.246094 333.703125 219.515625 334.535156 214.449219 C 334.546875 214.382812 334.558594 214.308594 334.570312 214.238281 C 335.605469 207.886719 330.675781 202.125 324.238281 202.125 " fill-opacity="1" fill-rule="nonzero"/></g></svg>